<?xml version="1.0" encoding="UTF-8" standalone="no"?>
<!-- Created with Inkscape (http://www.inkscape.org/) -->

<svg
   xmlns:dc="http://purl.org/dc/elements/1.1/"
   xmlns:cc="http://creativecommons.org/ns#"
   xmlns:rdf="http://www.w3.org/1999/02/22-rdf-syntax-ns#"
   xmlns:svg="http://www.w3.org/2000/svg"
   xmlns="http://www.w3.org/2000/svg"
   xmlns:xlink="http://www.w3.org/1999/xlink"
   xmlns:sodipodi="http://sodipodi.sourceforge.net/DTD/sodipodi-0.dtd"
   xmlns:inkscape="http://www.inkscape.org/namespaces/inkscape"
   id="svg4585"
   sodipodi:docname="Search-Engine.svg"
   viewBox="0 0 804.00002 536"
   version="1.1"
   inkscape:version="0.91 r13725"
   width="804"
   height="536">
  <defs
     id="defs4587" />
  <sodipodi:namedview
     id="base"
     bordercolor="#666666"
     inkscape:pageshadow="2"
     inkscape:window-y="19"
     fit-margin-left="0"
     pagecolor="#ffffff"
     inkscape:window-height="1061"
     inkscape:window-maximized="0"
     inkscape:zoom="1"
     inkscape:window-x="0"
     showgrid="false"
     borderopacity="1.0"
     inkscape:current-layer="g3771"
     inkscape:cx="308.54406"
     inkscape:cy="245.31416"
     fit-margin-top="0"
     fit-margin-right="0"
     fit-margin-bottom="0"
     inkscape:window-width="1920"
     inkscape:pageopacity="0.0"
     inkscape:document-units="px"
     inkscape:showpageshadow="false"
     showborder="false" />
  <g
     id="layer1"
     inkscape:label="Camada 1"
     inkscape:groupmode="layer"
     transform="translate(-31.125,-133.02999)">
    <g
       id="g3771"
       transform="translate(-131.541,88.019993)">
      <path
         id="path3172-8"
         d="m 964.126,59.51 c 0,-6.627 -5.373,-12 -12,-12 l -774.96,0 c -6.627,0 -12,5.373 -12,12 l 0,507 c 0,6.627 5.373,12 12,12 l 775,0 c 6.627,0 12,-5.373 12,-12 l 0,-507 z"
         style="fill:#fcfcfc;stroke:#565656;stroke-width:5;stroke-miterlimit:4;stroke-dasharray:none;stroke-opacity:1"
         inkscape:connector-curvature="0" />
      <path
         inkscape:connector-curvature="0"
         style="fill:#fcfcfc;stroke:none"
         d="m 964.126,59.51 c 0,-6.627 -5.373,-12 -12,-12 l -774.96,0 c -6.627,0 -12,5.373 -12,12 l 0,507 c 0,6.627 5.373,12 12,12 l 775,0 c 6.627,0 12,-5.373 12,-12 l 0,-507 z"
         id="path3769" />
      <path
         id="path3172"
         style="fill:#e8e8e8"
         inkscape:connector-curvature="0"
         d="m 177.166,47.64 c -6.627,0 -12,4.5017 -12,10.054 l 0,72.63 799,0 0,-72.63 c 0,-5.5524 -5.373,-10.054 -12,-10.054 l -775,0 z" />
      <circle
         r="6.0710211"
         cy="88.978104"
         cx="201.36725"
         id="path4555"
         style="fill:#949494;fill-opacity:1" />
      <use
         style="fill:#949494;fill-opacity:1"
         id="use4557"
         xlink:href="#path4555"
         transform="translate(23.732,2.3452e-6)"
         height="1000"
         width="1600"
         y="0"
         x="0" />
      <use
         style="fill:#949494;fill-opacity:1"
         id="use4559"
         xlink:href="#use4557"
         transform="translate(23.733,2.3452e-6)"
         height="1000"
         width="1600"
         y="0"
         x="0" />
      <rect
         id="rect4561"
         style="fill:#ffffff"
         rx="3"
         ry="3"
         height="35.386002"
         width="611.53998"
         y="71.290009"
         x="282.03601" />
      <path
         id="path3116"
         sodipodi:nodetypes="sssccccssscccccs"
         style="color:#000000;text-indent:0;text-transform:none;block-progression:tb;fill:#949494;fill-opacity:1"
         inkscape:connector-curvature="0"
         d="m 310.706,80.37 c -4.7279,0 -8.5625,3.8486 -8.5625,8.5938 0,4.7452 3.8343,8.625 8.5625,8.625 3.5302,0 6.5631,-2.1516 7.875,-5.2188 l 0.21875,-0.53125 c -0.98428,-0.29608 -1.7553,-0.55578 -2.6562,-0.84375 l -0.1875,0.40625 c -0.9148,1.9855 -2.9263,3.3438 -5.25,3.3438 -3.1883,0 -5.75,-2.575 -5.75,-5.7812 0,-3.2062 2.5612,-5.7812 5.75,-5.7812 2.4587,0 4.4818,1.5788 5.3125,3.75 l -1.5938,0 3.2561,3.7057 3.4314,-3.7057 -2.1562,0 c -0.92162,-3.7541 -4.2305,-6.5625 -8.25,-6.5625 z" />
      <rect
         id="rect3935"
         style="fill:#949494;fill-opacity:1"
         height="4.8562999"
         width="22.931999"
         y="79.940002"
         x="915.97601" />
      <use
         style="fill:#949494;fill-opacity:1"
         id="use3937"
         xlink:href="#rect3935"
         transform="translate(-1.4942e-6,6.6099)"
         height="1000"
         width="1600"
         y="0"
         x="0" />
      <use
         style="fill:#949494;fill-opacity:1"
         id="use3939"
         xlink:href="#use3937"
         transform="translate(-1.4942e-6,6.6099)"
         height="1000"
         width="1600"
         y="0"
         x="0" />
      <rect
         id="rect4551"
         style="fill:#dedede"
         height="2.4623001"
         width="799"
         y="129.78"
         x="165.166" />
      <g
         style="color:#000000;font-style:normal;font-variant:normal;font-weight:bold;font-stretch:normal;font-size:80.97312164px;line-height:125%;font-family:'Roboto Condensed';-inkscape-font-specification:'Roboto Condensed, Bold';text-indent:0;text-align:center;text-decoration:none;text-decoration-line:none;text-decoration-style:solid;text-decoration-color:#000000;letter-spacing:normal;word-spacing:normal;text-transform:none;direction:ltr;block-progression:tb;writing-mode:lr-tb;baseline-shift:baseline;text-anchor:middle;white-space:normal;clip-rule:nonzero;display:inline;overflow:visible;visibility:visible;opacity:1;isolation:auto;mix-blend-mode:normal;color-interpolation:sRGB;color-interpolation-filters:linearRGB;solid-color:#000000;solid-opacity:1;fill:#ffffff;fill-opacity:0.95187163;fill-rule:nonzero;stroke:none;stroke-width:12;stroke-linecap:round;stroke-linejoin:round;stroke-miterlimit:4;stroke-dasharray:none;stroke-dashoffset:0;stroke-opacity:1;color-rendering:auto;image-rendering:auto;shape-rendering:auto;text-rendering:auto;enable-background:accumulate"
         id="text4149">
        <path
           d="m 469.92257,240.36112 -2.91503,0 -0.97168,2.91503 c -4.53449,-2.75308 -9.14996,-3.96768 -15.30392,-3.96768 -5.34423,0 -9.6358,1.29557 -12.9557,3.88671 -3.48184,2.75308 -5.58714,6.72077 -5.58714,10.60748 0,3.15795 1.37654,6.55882 3.56281,8.74509 2.51017,2.51017 6.80175,4.45353 13.11765,6.07299 l 10.8504,2.75308 c 8.01634,1.94336 10.76942,4.37255 10.76942,9.23094 0,6.88272 -6.3159,12.065 -14.57516,12.065 -4.04866,0 -8.25926,-1.29557 -11.98402,-3.56282 -4.69644,-2.99601 -7.93537,-6.72077 -11.25527,-13.11765 l -2.996,0.97168 5.26325,18.54284 2.99601,0 1.53849,-4.04865 c 4.93936,3.48184 10.20261,5.10131 16.76143,5.10131 12.63181,0 22.51053,-7.61148 22.51053,-17.40923 0,-2.996 -0.72876,-5.91103 -1.94335,-7.85439 -2.4292,-3.88671 -6.47785,-6.07298 -15.22295,-8.17828 l -10.12164,-2.4292 c -7.85439,-1.94335 -11.01235,-4.45352 -11.01235,-8.82607 0,-4.85839 5.18228,-8.66412 11.82208,-8.66412 7.85439,0 14.33224,4.12963 20.00036,12.79375 l 2.59114,-0.97168 -4.93936,-14.65613 z"
           style="fill:#ff0100;fill-opacity:1"
           id="path5635" />
        <path
           d="m 517.95229,284.81536 c -2.99601,5.34423 -6.6398,7.77342 -11.74111,7.77342 -5.74909,0 -9.87872,-2.83406 -12.06499,-8.34023 -1.2146,-2.83406 -1.61946,-6.39688 -1.61946,-12.14597 l 28.09767,0 c -0.081,-4.69644 -1.13363,-7.61147 -3.80574,-10.68845 -3.23892,-3.80574 -8.17828,-5.91104 -13.8464,-5.91104 -11.17429,0 -19.10966,8.34023 -19.10966,20.00036 0,5.4252 2.02433,10.8504 5.34423,14.57517 3.64379,4.12962 8.58315,6.15395 14.65613,6.15395 7.44953,0 12.63181,-3.07698 16.76144,-10.12164 l -2.67211,-1.29557 z m -25.18265,-15.9517 c 0.56682,-3.40087 1.05266,-4.85839 2.34823,-6.55883 1.70043,-2.34822 4.2106,-3.56281 7.44952,-3.56281 5.91104,0 9.6358,3.88671 9.6358,10.12164 l -19.43355,0 z"
           style="fill:#0074ff;fill-opacity:1"
           id="path5637" />
        <path
           d="m 553.05666,272.50745 c -9.71677,1.05265 -10.20261,1.13362 -13.68445,2.02433 -8.98802,2.26724 -13.60349,6.23493 -13.60349,11.66013 0,5.83006 5.26325,10.04066 12.46986,10.04066 5.50617,0 9.39288,-1.61946 14.81808,-6.23493 1.53849,4.37255 4.29158,6.23493 9.06899,6.23493 3.48185,0 6.07299,-0.97167 8.34023,-3.15795 l -1.53849,-2.1053 c -1.37654,1.2146 -2.26724,1.61946 -3.64379,1.61946 -1.70043,0 -3.15795,-0.80973 -3.80573,-2.26725 -0.56681,-1.13362 -0.72876,-2.18627 -0.72876,-5.66811 l 0,-17.16631 c 0,-4.85838 -1.29557,-7.36855 -4.61547,-9.23093 -2.996,-1.70044 -7.12563,-2.75309 -10.93137,-2.75309 -9.39288,0 -17.65214,4.85839 -17.65214,10.28359 0,1.94335 1.78141,3.56282 3.88671,3.56282 2.26725,0 4.12963,-1.86239 4.12963,-4.12963 l -0.081,-2.26725 c 0,-2.34822 3.64379,-4.2106 8.17828,-4.2106 5.83007,0 9.39288,2.75308 9.39288,7.28758 l 0,6.47785 z m 0,13.8464 c -4.61547,4.29158 -7.93536,5.99201 -12.06499,5.99201 -3.80574,0 -6.96369,-3.07698 -6.96369,-6.88271 0,-5.50617 6.80174,-9.06899 19.02868,-10.12164 l 0,11.01234 z"
           style="fill:#ffc900;fill-opacity:1"
           id="path5639" />
        <path
           d="m 586.50489,256.23185 -2.75309,0 c -5.02033,0.97168 -7.69245,1.29557 -12.22694,1.61946 l 0,2.4292 1.94335,0.16194 c 4.12963,0.3239 5.34423,1.86238 5.34423,6.72077 l 0,19.02869 c 0,4.45352 -1.45752,6.3159 -5.02034,6.72076 l -2.02432,0.16195 0,2.42919 21.78177,0 0,-2.42919 -2.02433,-0.16195 c -3.56282,-0.40486 -5.02033,-2.26724 -5.02033,-6.72076 l 0,-19.83842 c 2.91503,-3.23892 5.1013,-4.53449 7.44952,-4.53449 1.37655,0 1.94336,0.24292 3.40087,1.29557 1.45752,0.97167 2.67212,1.37654 4.21061,1.37654 2.59114,0 4.53449,-1.86238 4.53449,-4.45352 0,-2.67212 -2.42919,-4.5345 -5.91104,-4.5345 -1.86238,0 -3.80573,0.40487 -5.74909,1.29557 -1.94335,0.80973 -2.34822,1.13363 -6.23493,4.45352 -0.24292,0.16195 -0.8907,0.80974 -1.70043,1.45752 l 0,-6.47785 z"
           style="fill:#009632;fill-opacity:1"
           id="path5641" />
        <path
           d="m 643.46568,285.3012 c -4.53449,5.74909 -7.85439,7.69245 -12.79375,7.69245 -8.42121,0 -13.92738,-6.6398 -13.92738,-16.76144 0,-4.53449 0.80973,-8.50218 2.34822,-11.66013 1.86238,-3.88671 5.02034,-5.83006 9.47386,-5.83006 4.2106,0 8.01634,2.51016 8.01634,5.34422 l -0.081,2.83406 c 0,2.34822 1.70044,4.12963 4.12963,4.12963 2.34822,0 4.12963,-1.86238 4.12963,-4.37255 0,-2.75308 -1.70043,-5.50617 -4.61547,-7.69244 -3.23892,-2.34822 -7.04466,-3.48185 -11.90304,-3.48185 -5.91104,0 -10.60748,1.78141 -14.00835,5.26326 -3.6438,3.80573 -5.7491,9.3119 -5.7491,15.14197 0,12.14597 8.01634,20.32425 19.91939,20.32425 7.77342,0 13.19862,-2.91503 17.40922,-9.47385 l -2.34822,-1.45752 z"
           style="fill:#ff0100;fill-opacity:1"
           id="path5643" />
        <path
           d="m 663.91393,237.44609 -3.23893,0 c -4.12963,1.61946 -5.99201,2.1053 -11.49818,2.75308 l 0,2.51017 1.78141,0.16195 c 4.37255,0.40486 5.26325,1.86238 5.26325,9.06899 l 0,34.25163 c 0,4.45352 -1.45751,6.3159 -5.02033,6.72076 l -2.02433,0.16195 0,2.42919 21.78177,0 0,-2.42919 -2.02433,-0.16195 c -3.56282,-0.40486 -5.02033,-2.26724 -5.02033,-6.72076 l 0,-20.16231 c 4.85839,-4.5345 9.31191,-6.6398 14.00835,-6.6398 4.61547,0 6.96369,2.75309 6.96369,8.17829 l 0,18.62382 c 0,4.45352 -1.45752,6.3159 -5.02034,6.72076 l -2.02433,0.16195 0,2.42919 21.78177,0 0,-2.42919 -2.02432,-0.16195 c -3.56282,-0.40486 -5.02034,-2.26724 -5.02034,-6.72076 l 0,-19.10966 c 0,-5.02033 -0.8907,-7.36856 -3.64379,-9.23094 -2.26724,-1.53849 -5.34422,-2.34822 -9.06899,-2.34822 -5.66812,0 -10.60748,2.1053 -15.9517,6.72077 l 0,-24.77777 z"
           style="fill:#0074ff;fill-opacity:1"
           id="path5645" />
      </g>
      <g
         style="color:#000000;font-style:normal;font-variant:normal;font-weight:bold;font-stretch:normal;font-size:30.0880127px;line-height:125%;font-family:'Roboto Condensed';-inkscape-font-specification:'Roboto Condensed, Bold';text-indent:0;text-align:center;text-decoration:none;text-decoration-line:none;text-decoration-style:solid;text-decoration-color:#000000;letter-spacing:normal;word-spacing:normal;text-transform:none;direction:ltr;block-progression:tb;writing-mode:lr-tb;baseline-shift:baseline;text-anchor:middle;white-space:normal;clip-rule:nonzero;display:inline;overflow:visible;visibility:visible;opacity:1;isolation:auto;mix-blend-mode:normal;color-interpolation:sRGB;color-interpolation-filters:linearRGB;solid-color:#000000;solid-opacity:1;fill:#787878;fill-opacity:0.95187163;fill-rule:nonzero;stroke:none;stroke-width:12;stroke-linecap:round;stroke-linejoin:round;stroke-miterlimit:4;stroke-dasharray:none;stroke-dashoffset:0;stroke-opacity:1;color-rendering:auto;image-rendering:auto;shape-rendering:auto;text-rendering:auto;enable-background:accumulate"
         id="text4153">
        <path
           d="m 684.89645,230.78365 -17.18025,0 0,0.93273 0.7522,0.0903 c 1.56457,0.21061 1.95572,0.84246 1.95572,3.30968 l 0,11.82459 c 0,2.46721 -0.39115,3.09906 -1.95572,3.30968 l -0.7522,0.0903 0,0.93273 17.54131,0 2.73801,-6.40875 -0.93273,-0.42123 c -3.2796,4.21232 -5.74681,5.5362 -10.22993,5.5362 -1.5044,0 -2.52739,-0.2708 -3.0088,-0.84247 -0.27079,-0.36105 -0.39114,-0.84246 -0.39114,-1.80528 l 0,-6.34857 2.22651,0 c 2.37695,0 3.39995,1.05308 3.70083,3.88135 l 1.02299,0 0,-8.99631 -1.02299,0 c -0.42124,3.12915 -1.08317,3.82118 -3.64065,3.82118 l -2.28669,0 0,-5.11497 c 0,-1.92563 0.78229,-2.4973 3.43003,-2.4973 4.09197,0 6.37866,1.11325 9.14676,4.5132 l 0.96281,-0.39114 -2.07607,-5.41585 z"
           style="font-style:normal;font-variant:normal;font-weight:normal;font-stretch:normal;font-family:'Bookman URW';-inkscape-font-specification:'Bookman URW';fill:#787878;fill-opacity:1"
           id="path5648" />
        <path
           d="m 694.63603,236.6809 -1.02299,0 c -1.86546,0.36106 -2.85836,0.48141 -4.54329,0.60176 l 0,0.90264 0.72211,0.0602 c 1.53449,0.12035 1.98581,0.69202 1.98581,2.49731 l 0,7.07068 c 0,1.65484 -0.54158,2.34686 -1.86545,2.4973 l -0.7522,0.0602 0,0.90264 8.09367,0 0,-0.90264 -0.7522,-0.0602 c -1.32387,-0.15044 -1.86546,-0.84246 -1.86546,-2.4973 l 0,-7.43174 c 1.86546,-1.68493 3.64065,-2.52739 5.32558,-2.52739 1.65484,0 2.55748,1.05308 2.55748,3.0088 l 0,6.95033 c 0,1.65484 -0.54158,2.34686 -1.86545,2.4973 l -0.7522,0.0602 0,0.90264 8.09367,0 0,-0.90264 -0.7522,-0.0602 c -1.32387,-0.15044 -1.86546,-0.84246 -1.86546,-2.4973 l 0,-7.43174 c 0,-2.49731 -1.68492,-3.97162 -4.54329,-3.97162 -2.31677,0 -4.09197,0.7522 -6.19813,2.64775 l 0,-2.37696 z"
           style="font-style:normal;font-variant:normal;font-weight:normal;font-stretch:normal;font-family:'Bookman URW';-inkscape-font-specification:'Bookman URW';fill:#787878;fill-opacity:1"
           id="path5650" />
        <path
           d="m 714.22803,249.16743 c -1.35396,-0.18053 -1.95572,-0.54159 -1.95572,-1.23361 0,-0.57167 0.5115,-1.14334 1.38405,-1.59466 1.23361,0.39114 1.80528,0.4814 2.82827,0.4814 2.16634,0 3.82118,-0.57167 4.90435,-1.65484 0.87255,-0.87255 1.41413,-2.22651 1.41413,-3.39994 0,-1.65484 -0.93272,-3.21942 -2.4973,-4.2725 0.60176,-0.90264 1.08317,-1.29378 1.59466,-1.29378 0.21062,0 0.33097,0.0301 0.69203,0.27079 0.33097,0.21061 0.60176,0.30088 0.90264,0.30088 0.69202,0 1.14334,-0.48141 1.14334,-1.14335 0,-0.78228 -0.66193,-1.29378 -1.62475,-1.29378 -0.93273,0 -1.92563,0.39114 -2.52739,1.02299 -0.36106,0.36106 -0.60176,0.66194 -1.14335,1.65484 -1.20352,-0.45132 -1.89554,-0.60176 -2.82827,-0.60176 -3.43003,0 -6.19813,2.37695 -6.19813,5.35567 0,1.7451 0.78229,3.15924 2.43713,4.2725 -2.0159,0.66193 -2.94863,1.59466 -2.94863,3.0088 0,1.20352 0.66194,1.95572 2.19643,2.52739 -2.22652,0.84246 -3.15924,1.80528 -3.15924,3.27959 0,2.16634 3.12915,3.67074 7.64235,3.67074 4.90435,0 8.0335,-1.89554 8.0335,-4.87426 0,-0.84246 -0.2407,-1.59466 -0.69202,-2.16633 -0.66194,-0.81238 -1.74511,-1.23361 -3.85127,-1.53449 l -5.74681,-0.78229 z m 2.43713,-11.7945 c 2.07607,0 3.06898,1.38405 3.06898,4.24241 0,2.85836 -1.023,4.24241 -3.15924,4.24241 -2.16634,0 -3.18933,-1.38405 -3.18933,-4.2725 0,-2.64775 1.20352,-4.21232 3.27959,-4.21232 z m 2.64775,15.22453 c 2.22651,0.27079 3.09906,0.84247 3.09906,2.0159 0,1.71502 -2.31678,2.79818 -5.92734,2.79818 -3.46012,0 -5.83707,-1.17343 -5.83707,-2.85836 0,-1.14334 0.87255,-2.10616 2.4973,-2.70792 l 6.16805,0.7522 z"
           style="font-style:normal;font-variant:normal;font-weight:normal;font-stretch:normal;font-family:'Bookman URW';-inkscape-font-specification:'Bookman URW';fill:#787878;fill-opacity:1"
           id="path5652" />
        <path
           d="m 730.62788,236.6809 -1.023,0 c -1.83536,0.33097 -2.82827,0.48141 -4.42293,0.60176 l 0,0.90264 0.60176,0.0602 c 1.56457,0.15044 1.98581,0.69202 1.98581,2.49731 l 0,7.07068 c 0,1.65484 -0.54159,2.34686 -1.86546,2.4973 l -0.7522,0.0602 0,0.90264 8.06359,0 0,-0.90264 -0.72212,-0.0602 c -1.35396,-0.15044 -1.86545,-0.84246 -1.86545,-2.4973 l 0,-11.13257 z m -1.38405,-5.08487 c -1.02299,0 -1.83537,0.81238 -1.83537,1.80528 0,1.02299 0.81238,1.83537 1.83537,1.83537 0.9929,0 1.80528,-0.81238 1.80528,-1.83537 0,-0.9929 -0.81238,-1.80528 -1.80528,-1.80528 z"
           style="font-style:normal;font-variant:normal;font-weight:normal;font-stretch:normal;font-family:'Bookman URW';-inkscape-font-specification:'Bookman URW';fill:#787878;fill-opacity:1"
           id="path5654" />
        <path
           d="m 739.76805,236.6809 -1.02299,0 c -1.86546,0.36106 -2.85836,0.48141 -4.54329,0.60176 l 0,0.90264 0.72211,0.0602 c 1.53449,0.12035 1.98581,0.69202 1.98581,2.49731 l 0,7.07068 c 0,1.65484 -0.54158,2.34686 -1.86546,2.4973 l -0.7522,0.0602 0,0.90264 8.09368,0 0,-0.90264 -0.7522,-0.0602 c -1.32387,-0.15044 -1.86546,-0.84246 -1.86546,-2.4973 l 0,-7.43174 c 1.86546,-1.68493 3.64065,-2.52739 5.32558,-2.52739 1.65484,0 2.55748,1.05308 2.55748,3.0088 l 0,6.95033 c 0,1.65484 -0.54158,2.34686 -1.86545,2.4973 l -0.7522,0.0602 0,0.90264 8.09367,0 0,-0.90264 -0.7522,-0.0602 c -1.32387,-0.15044 -1.86546,-0.84246 -1.86546,-2.4973 l 0,-7.43174 c 0,-2.49731 -1.68493,-3.97162 -4.54329,-3.97162 -2.31677,0 -4.09197,0.7522 -6.19813,2.64775 l 0,-2.37696 z"
           style="font-style:normal;font-variant:normal;font-weight:normal;font-stretch:normal;font-family:'Bookman URW';-inkscape-font-specification:'Bookman URW';fill:#787878;fill-opacity:1"
           id="path5656" />
        <path
           d="m 767.24311,247.30197 c -1.11326,1.98581 -2.46722,2.88845 -4.36277,2.88845 -2.13625,0 -3.67073,-1.05308 -4.48311,-3.09906 -0.45132,-1.05308 -0.60176,-2.37696 -0.60176,-4.51321 l 10.44054,0 c -0.0301,-1.7451 -0.42123,-2.82827 -1.41414,-3.97161 -1.20352,-1.41414 -3.03889,-2.19643 -5.14505,-2.19643 -4.15214,0 -7.10077,3.09907 -7.10077,7.43174 0,2.0159 0.7522,4.03179 1.98581,5.41584 1.35396,1.53449 3.18933,2.28669 5.44593,2.28669 2.7681,0 4.69373,-1.14334 6.22822,-3.761 l -0.9929,-0.48141 z m -9.35738,-5.92734 c 0.21062,-1.26369 0.39115,-1.80528 0.87256,-2.43713 0.63184,-0.87255 1.56457,-1.32387 2.76809,-1.32387 2.19643,0 3.58048,1.44423 3.58048,3.761 l -7.22113,0 z"
           style="font-style:normal;font-variant:normal;font-weight:normal;font-stretch:normal;font-family:'Bookman URW';-inkscape-font-specification:'Bookman URW';fill:#787878;fill-opacity:1"
           id="path5658" />
      </g>
      <g
         style="font-size:16px;line-height:125%;font-family:Sans;letter-spacing:0px;word-spacing:0px;fill:#5b5b5b;fill-opacity:1"
         id="text4412">
        <path
           d="m 340.34891,88.65699 0,5.28125 -1.4375,0 0,-5.234375 q 0,-1.242187 -0.48438,-1.859375 -0.48437,-0.617187 -1.45312,-0.617187 -1.16407,0 -1.83594,0.742187 -0.67188,0.742188 -0.67188,2.023438 l 0,4.945312 -1.44531,0 0,-12.15625 1.44531,0 0,4.765625 q 0.51563,-0.789062 1.21094,-1.179687 0.70313,-0.390625 1.61719,-0.390625 1.50781,0 2.28125,0.9375 0.77344,0.929687 0.77344,2.742187 z"
           style="font-size:16px;fill:#5b5b5b;fill-opacity:1"
           id="path5661" />
        <path
           d="m 344.65359,82.703865 0,2.484375 2.96094,0 0,1.117188 -2.96094,0 0,4.75 q 0,1.070312 0.28907,1.375 0.29687,0.304687 1.19531,0.304687 l 1.47656,0 0,1.203125 -1.47656,0 q -1.66406,0 -2.29688,-0.617187 -0.63281,-0.625 -0.63281,-2.265625 l 0,-4.75 -1.05469,0 0,-1.117188 1.05469,0 0,-2.484375 1.44531,0 z"
           style="font-size:16px;fill:#5b5b5b;fill-opacity:1"
           id="path5663" />
        <path
           d="m 350.93484,82.703865 0,2.484375 2.96094,0 0,1.117188 -2.96094,0 0,4.75 q 0,1.070312 0.28907,1.375 0.29687,0.304687 1.19531,0.304687 l 1.47656,0 0,1.203125 -1.47656,0 q -1.66406,0 -2.29688,-0.617187 -0.63281,-0.625 -0.63281,-2.265625 l 0,-4.75 -1.05469,0 0,-1.117188 1.05469,0 0,-2.484375 1.44531,0 z"
           style="font-size:16px;fill:#5b5b5b;fill-opacity:1"
           id="path5665" />
        <path
           d="m 357.18484,92.62574 0,4.640625 -1.44531,0 0,-12.078125 1.44531,0 0,1.328125 q 0.45313,-0.78125 1.14063,-1.15625 0.69531,-0.382812 1.65625,-0.382812 1.59375,0 2.58594,1.265625 1,1.265625 1,3.328125 0,2.0625 -1,3.328125 -0.99219,1.265625 -2.58594,1.265625 -0.96094,0 -1.65625,-0.375 -0.6875,-0.382813 -1.14063,-1.164063 z m 4.89063,-3.054687 q 0,-1.585938 -0.65625,-2.484375 -0.64844,-0.90625 -1.78906,-0.90625 -1.14063,0 -1.79688,0.90625 -0.64844,0.898437 -0.64844,2.484375 0,1.585937 0.64844,2.492187 0.65625,0.898438 1.79688,0.898438 1.14062,0 1.78906,-0.898438 0.65625,-0.90625 0.65625,-2.492187 z"
           style="font-size:16px;fill:#5b5b5b;fill-opacity:1"
           id="path5667" />
        <path
           d="m 366.31766,91.953865 1.64843,0 0,1.984375 -1.64843,0 0,-1.984375 z m 0,-6.289062 1.64843,0 0,1.984375 -1.64843,0 0,-1.984375 z"
           style="font-size:16px;fill:#5b5b5b;fill-opacity:1"
           id="path5669" />
        <path
           d="m 373.91141,82.274178 1.32812,0 -4.0625,13.148437 -1.32812,0 4.0625,-13.148437 z"
           style="font-size:16px;fill:#5b5b5b;fill-opacity:1"
           id="path5671" />
        <path
           d="m 379.31766,82.274178 1.32812,0 -4.0625,13.148437 -1.32812,0 4.0625,-13.148437 z"
           style="font-size:16px;fill:#5b5b5b;fill-opacity:1"
           id="path5673" />
        <path
           d="m 389.65359,89.203865 0,0.703125 -6.60937,0 q 0.0937,1.484375 0.89062,2.265625 0.80469,0.773438 2.23438,0.773438 0.82812,0 1.60156,-0.203125 0.78125,-0.203125 1.54688,-0.609375 l 0,1.359375 q -0.77344,0.328125 -1.58594,0.5 -0.8125,0.171875 -1.64844,0.171875 -2.09375,0 -3.32031,-1.21875 -1.21875,-1.21875 -1.21875,-3.296875 0,-2.148438 1.15625,-3.40625 1.16406,-1.265625 3.13281,-1.265625 1.76563,0 2.78906,1.140625 1.03125,1.132812 1.03125,3.085937 z m -1.4375,-0.421875 q -0.0156,-1.179687 -0.66406,-1.882812 -0.64062,-0.703125 -1.70312,-0.703125 -1.20313,0 -1.92969,0.679687 -0.71875,0.679688 -0.82813,1.914063 l 5.125,-0.0078 z"
           style="font-size:16px;fill:#5b5b5b;fill-opacity:1"
           id="path5675" />
        <path
           d="m 399.00516,85.18824 -3.16407,4.257813 3.32813,4.492187 -1.69531,0 -2.54688,-3.4375 -2.54687,3.4375 -1.69532,0 3.39844,-4.578125 -3.10937,-4.171875 1.69531,0 2.32031,3.117188 2.32031,-3.117188 1.69532,0 z"
           style="font-size:16px;fill:#5b5b5b;fill-opacity:1"
           id="path5677" />
        <path
           d="m 405.17703,89.539803 q -1.74219,0 -2.41406,0.398437 -0.67188,0.398438 -0.67188,1.359375 0,0.765625 0.5,1.21875 0.50782,0.445313 1.375,0.445313 1.19532,0 1.91407,-0.84375 0.72656,-0.851563 0.72656,-2.257813 l 0,-0.320312 -1.42969,0 z m 2.86719,-0.59375 0,4.992187 -1.4375,0 0,-1.328125 q -0.49219,0.796875 -1.22656,1.179688 -0.73438,0.375 -1.79688,0.375 -1.34375,0 -2.14062,-0.75 -0.78907,-0.757813 -0.78907,-2.023438 0,-1.476562 0.98438,-2.226562 0.99219,-0.75 2.95312,-0.75 l 2.01563,0 0,-0.140625 q 0,-0.992188 -0.65625,-1.53125 -0.64844,-0.546875 -1.82813,-0.546875 -0.75,0 -1.46093,0.179687 -0.71094,0.179688 -1.36719,0.539063 l 0,-1.328125 q 0.78906,-0.304688 1.53125,-0.453125 0.74219,-0.15625 1.44531,-0.15625 1.89844,0 2.83594,0.984375 0.9375,0.984375 0.9375,2.984375 z"
           style="font-size:16px;fill:#5b5b5b;fill-opacity:1"
           id="path5679" />
        <path
           d="m 417.82547,86.867928 q 0.53906,-0.96875 1.28906,-1.429688 0.75,-0.460937 1.76563,-0.460937 1.36718,0 2.10937,0.960937 0.74219,0.953125 0.74219,2.71875 l 0,5.28125 -1.44531,0 0,-5.234375 q 0,-1.257812 -0.44532,-1.867187 -0.44531,-0.609375 -1.35937,-0.609375 -1.11719,0 -1.76563,0.742187 -0.64843,0.742188 -0.64843,2.023438 l 0,4.945312 -1.44532,0 0,-5.234375 q 0,-1.265625 -0.44531,-1.867187 -0.44531,-0.609375 -1.375,-0.609375 -1.10156,0 -1.75,0.75 -0.64844,0.742187 -0.64844,2.015625 l 0,4.945312 -1.44531,0 0,-8.75 1.44531,0 0,1.359375 q 0.49219,-0.804687 1.17969,-1.1875 0.6875,-0.382812 1.63281,-0.382812 0.95313,0 1.61719,0.484375 0.67188,0.484375 0.99219,1.40625 z"
           style="font-size:16px;fill:#5b5b5b;fill-opacity:1"
           id="path5681" />
        <path
           d="m 427.99734,92.62574 0,4.640625 -1.44531,0 0,-12.078125 1.44531,0 0,1.328125 q 0.45313,-0.78125 1.14063,-1.15625 0.69531,-0.382812 1.65625,-0.382812 1.59375,0 2.58594,1.265625 1,1.265625 1,3.328125 0,2.0625 -1,3.328125 -0.99219,1.265625 -2.58594,1.265625 -0.96094,0 -1.65625,-0.375 -0.6875,-0.382813 -1.14063,-1.164063 z m 4.89063,-3.054687 q 0,-1.585938 -0.65625,-2.484375 -0.64844,-0.90625 -1.78906,-0.90625 -1.14063,0 -1.79688,0.90625 -0.64844,0.898437 -0.64844,2.484375 0,1.585937 0.64844,2.492187 0.65625,0.898438 1.79688,0.898438 1.14062,0 1.78906,-0.898438 0.65625,-0.90625 0.65625,-2.492187 z"
           style="font-size:16px;fill:#5b5b5b;fill-opacity:1"
           id="path5683" />
        <path
           d="m 436.76297,81.78199 1.4375,0 0,12.15625 -1.4375,0 0,-12.15625 z"
           style="font-size:16px;fill:#5b5b5b;fill-opacity:1"
           id="path5685" />
        <path
           d="m 448.68484,89.203865 0,0.703125 -6.60937,0 q 0.0937,1.484375 0.89062,2.265625 0.80469,0.773438 2.23438,0.773438 0.82812,0 1.60156,-0.203125 0.78125,-0.203125 1.54688,-0.609375 l 0,1.359375 q -0.77344,0.328125 -1.58594,0.5 -0.8125,0.171875 -1.64844,0.171875 -2.09375,0 -3.32031,-1.21875 -1.21875,-1.21875 -1.21875,-3.296875 0,-2.148438 1.15625,-3.40625 1.16406,-1.265625 3.13281,-1.265625 1.76563,0 2.78906,1.140625 1.03125,1.132812 1.03125,3.085937 z m -1.4375,-0.421875 q -0.0156,-1.179687 -0.66406,-1.882812 -0.64062,-0.703125 -1.70312,-0.703125 -1.20313,0 -1.92969,0.679687 -0.71875,0.679688 -0.82813,1.914063 l 5.125,-0.0078 z"
           style="font-size:16px;fill:#5b5b5b;fill-opacity:1"
           id="path5687" />
        <path
           d="m 451.24734,91.953865 1.64844,0 0,1.984375 -1.64844,0 0,-1.984375 z"
           style="font-size:16px;fill:#5b5b5b;fill-opacity:1"
           id="path5689" />
        <path
           d="m 462.43484,85.524178 0,1.34375 q -0.60937,-0.335938 -1.22656,-0.5 -0.60937,-0.171875 -1.23437,-0.171875 -1.39844,0 -2.17188,0.890625 -0.77344,0.882812 -0.77344,2.484375 0,1.601562 0.77344,2.492187 0.77344,0.882813 2.17188,0.882813 0.625,0 1.23437,-0.164063 0.61719,-0.171875 1.22656,-0.507812 l 0,1.328125 q -0.60156,0.28125 -1.25,0.421875 -0.64062,0.140625 -1.36718,0.140625 -1.97657,0 -3.14063,-1.242188 -1.16406,-1.242187 -1.16406,-3.351562 0,-2.140625 1.17187,-3.367188 1.17969,-1.226562 3.22657,-1.226562 0.66406,0 1.29687,0.140625 0.63281,0.132812 1.22656,0.40625 z"
           style="font-size:16px;fill:#5b5b5b;fill-opacity:1"
           id="path5691" />
        <path
           d="m 468.34109,86.196053 q -1.15625,0 -1.82812,0.90625 -0.67188,0.898437 -0.67188,2.46875 0,1.570312 0.66407,2.476562 0.67187,0.898438 1.83593,0.898438 1.14844,0 1.82032,-0.90625 0.67187,-0.90625 0.67187,-2.46875 0,-1.554688 -0.67187,-2.460938 -0.67188,-0.914062 -1.82032,-0.914062 z m 0,-1.21875 q 1.875,0 2.94532,1.21875 1.07031,1.21875 1.07031,3.375 0,2.148437 -1.07031,3.375 -1.07032,1.21875 -2.94532,1.21875 -1.88281,0 -2.95312,-1.21875 -1.0625,-1.226563 -1.0625,-3.375 0,-2.15625 1.0625,-3.375 1.07031,-1.21875 2.95312,-1.21875 z"
           style="font-size:16px;fill:#5b5b5b;fill-opacity:1"
           id="path5693" />
        <path
           d="m 481.54422,86.867928 q 0.53906,-0.96875 1.28906,-1.429688 0.75,-0.460937 1.76563,-0.460937 1.36718,0 2.10937,0.960937 0.74219,0.953125 0.74219,2.71875 l 0,5.28125 -1.44531,0 0,-5.234375 q 0,-1.257812 -0.44532,-1.867187 -0.44531,-0.609375 -1.35937,-0.609375 -1.11719,0 -1.76563,0.742187 -0.64843,0.742188 -0.64843,2.023438 l 0,4.945312 -1.44532,0 0,-5.234375 q 0,-1.265625 -0.44531,-1.867187 -0.44531,-0.609375 -1.375,-0.609375 -1.10156,0 -1.75,0.75 -0.64844,0.742187 -0.64844,2.015625 l 0,4.945312 -1.44531,0 0,-8.75 1.44531,0 0,1.359375 q 0.49219,-0.804687 1.17969,-1.1875 0.6875,-0.382812 1.63281,-0.382812 0.95313,0 1.61719,0.484375 0.67188,0.484375 0.99219,1.40625 z"
           style="font-size:16px;fill:#5b5b5b;fill-opacity:1"
           id="path5695" />
        <path
           d="m 492.88016,82.274178 1.32812,0 -4.0625,13.148437 -1.32812,0 4.0625,-13.148437 z"
           style="font-size:16px;fill:#5b5b5b;fill-opacity:1"
           id="path5697" />
        <path
           d="m 501.30984,85.446053 0,1.359375 q -0.60937,-0.3125 -1.26562,-0.46875 -0.65625,-0.15625 -1.35938,-0.15625 -1.07031,0 -1.60937,0.328125 -0.53125,0.328125 -0.53125,0.984375 0,0.5 0.38281,0.789062 0.38281,0.28125 1.53906,0.539063 l 0.49219,0.109375 q 1.53125,0.328125 2.17188,0.929687 0.64843,0.59375 0.64843,1.664063 0,1.21875 -0.96875,1.929687 -0.96093,0.710938 -2.64843,0.710938 -0.70313,0 -1.46875,-0.140625 -0.75782,-0.132813 -1.60157,-0.40625 l 0,-1.484375 q 0.79688,0.414062 1.57032,0.625 0.77343,0.203125 1.53125,0.203125 1.01562,0 1.5625,-0.34375 0.54687,-0.351563 0.54687,-0.984375 0,-0.585938 -0.39844,-0.898438 -0.39062,-0.3125 -1.72656,-0.601562 l -0.5,-0.117188 q -1.33594,-0.28125 -1.92969,-0.859375 -0.59375,-0.585937 -0.59375,-1.601562 0,-1.234375 0.875,-1.90625 0.875,-0.671875 2.48438,-0.671875 0.79687,0 1.5,0.117187 0.70312,0.117188 1.29687,0.351563 z"
           style="font-size:16px;fill:#5b5b5b;fill-opacity:1"
           id="path5699" />
        <path
           d="m 511.55984,89.203865 0,0.703125 -6.60937,0 q 0.0937,1.484375 0.89062,2.265625 0.80469,0.773438 2.23438,0.773438 0.82812,0 1.60156,-0.203125 0.78125,-0.203125 1.54688,-0.609375 l 0,1.359375 q -0.77344,0.328125 -1.58594,0.5 -0.8125,0.171875 -1.64844,0.171875 -2.09375,0 -3.32031,-1.21875 -1.21875,-1.21875 -1.21875,-3.296875 0,-2.148438 1.15625,-3.40625 1.16406,-1.265625 3.13281,-1.265625 1.76563,0 2.78906,1.140625 1.03125,1.132812 1.03125,3.085937 z m -1.4375,-0.421875 q -0.0156,-1.179687 -0.66406,-1.882812 -0.64062,-0.703125 -1.70312,-0.703125 -1.20313,0 -1.92969,0.679687 -0.71875,0.679688 -0.82813,1.914063 l 5.125,-0.0078 z"
           style="font-size:16px;fill:#5b5b5b;fill-opacity:1"
           id="path5701" />
        <path
           d="m 517.89578,89.539803 q -1.74219,0 -2.41406,0.398437 -0.67188,0.398438 -0.67188,1.359375 0,0.765625 0.5,1.21875 0.50782,0.445313 1.375,0.445313 1.19532,0 1.91407,-0.84375 0.72656,-0.851563 0.72656,-2.257813 l 0,-0.320312 -1.42969,0 z m 2.86719,-0.59375 0,4.992187 -1.4375,0 0,-1.328125 q -0.49219,0.796875 -1.22656,1.179688 -0.73438,0.375 -1.79688,0.375 -1.34375,0 -2.14062,-0.75 -0.78907,-0.757813 -0.78907,-2.023438 0,-1.476562 0.98438,-2.226562 0.99219,-0.75 2.95312,-0.75 l 2.01563,0 0,-0.140625 q 0,-0.992188 -0.65625,-1.53125 -0.64844,-0.546875 -1.82813,-0.546875 -0.75,0 -1.46093,0.179687 -0.71094,0.179688 -1.36719,0.539063 l 0,-1.328125 q 0.78906,-0.304688 1.53125,-0.453125 0.74219,-0.15625 1.44531,-0.15625 1.89844,0 2.83594,0.984375 0.9375,0.984375 0.9375,2.984375 z"
           style="font-size:16px;fill:#5b5b5b;fill-opacity:1"
           id="path5703" />
        <path
           d="m 528.80203,86.53199 q -0.24219,-0.140625 -0.53125,-0.203125 -0.28125,-0.07031 -0.625,-0.07031 -1.21875,0 -1.875,0.796875 -0.64844,0.789062 -0.64844,2.273437 l 0,4.609375 -1.44531,0 0,-8.75 1.44531,0 0,1.359375 q 0.45313,-0.796875 1.17969,-1.179687 0.72656,-0.390625 1.76563,-0.390625 0.14843,0 0.32812,0.02344 0.17969,0.01563 0.39844,0.05469 l 0.008,1.476562 z"
           style="font-size:16px;fill:#5b5b5b;fill-opacity:1"
           id="path5705" />
        <path
           d="m 536.27859,85.524178 0,1.34375 q -0.60937,-0.335938 -1.22656,-0.5 -0.60937,-0.171875 -1.23437,-0.171875 -1.39844,0 -2.17188,0.890625 -0.77344,0.882812 -0.77344,2.484375 0,1.601562 0.77344,2.492187 0.77344,0.882813 2.17188,0.882813 0.625,0 1.23437,-0.164063 0.61719,-0.171875 1.22656,-0.507812 l 0,1.328125 q -0.60156,0.28125 -1.25,0.421875 -0.64062,0.140625 -1.36718,0.140625 -1.97657,0 -3.14063,-1.242188 -1.16406,-1.242187 -1.16406,-3.351562 0,-2.140625 1.17187,-3.367188 1.17969,-1.226562 3.22657,-1.226562 0.66406,0 1.29687,0.140625 0.63281,0.132812 1.22656,0.40625 z"
           style="font-size:16px;fill:#5b5b5b;fill-opacity:1"
           id="path5707" />
        <path
           d="m 546.06766,88.65699 0,5.28125 -1.4375,0 0,-5.234375 q 0,-1.242187 -0.48438,-1.859375 -0.48437,-0.617187 -1.45312,-0.617187 -1.16407,0 -1.83594,0.742187 -0.67188,0.742188 -0.67188,2.023438 l 0,4.945312 -1.44531,0 0,-12.15625 1.44531,0 0,4.765625 q 0.51563,-0.789062 1.21094,-1.179687 0.70313,-0.390625 1.61719,-0.390625 1.50781,0 2.28125,0.9375 0.77344,0.929687 0.77344,2.742187 z"
           style="font-size:16px;fill:#5b5b5b;fill-opacity:1"
           id="path5709" />
      </g>
      <g
         id="g4278"
         transform="matrix(2,0,0,2,-177.1654,-581.01)">
        <path
           inkscape:connector-curvature="0"
           id="rect4267"
           d="m 275.6582,447.00586 c -0.27613,3e-5 -0.49997,0.22387 -0.5,0.5 l 0,14.5 c 3e-5,0.27613 0.22387,0.49997 0.5,0.5 l 190.5,0 c 0.27613,-3e-5 0.49997,-0.22387 0.5,-0.5 l 0,-14.5 c -3e-5,-0.27613 -0.22387,-0.49997 -0.5,-0.5 z m 0.5,1 189.5,0 0,13.5 -189.5,0 z"
           style="color:#000000;font-style:normal;font-variant:normal;font-weight:normal;font-stretch:normal;font-size:medium;line-height:normal;font-family:sans-serif;text-indent:0;text-align:start;text-decoration:none;text-decoration-line:none;text-decoration-style:solid;text-decoration-color:#000000;letter-spacing:normal;word-spacing:normal;text-transform:none;direction:ltr;block-progression:tb;writing-mode:lr-tb;baseline-shift:baseline;text-anchor:start;white-space:normal;clip-rule:nonzero;display:inline;overflow:visible;visibility:visible;opacity:1;isolation:auto;mix-blend-mode:normal;color-interpolation:sRGB;color-interpolation-filters:linearRGB;solid-color:#000000;solid-opacity:1;fill:#b1b1b1;fill-opacity:1;fill-rule:nonzero;stroke:none;stroke-width:1;stroke-linecap:round;stroke-linejoin:round;stroke-miterlimit:4;stroke-dasharray:none;stroke-dashoffset:0;stroke-opacity:1;color-rendering:auto;image-rendering:auto;shape-rendering:auto;text-rendering:auto;enable-background:accumulate"
           sodipodi:nodetypes="cccccccccccccc" />
        <path
           id="path4273"
           transform="translate(162.6585,313.00563)"
           d="m 113,134 a 0.50005,0.50005 0 0 0 -0.30273,0.10352 l 0.80273,0.89843 0,-0.002 189.45703,0 0.9082,-0.83984 A 0.50005,0.50005 0 0 0 303.5,134 L 113,134 Z"
           style="color:#000000;clip-rule:nonzero;display:inline;overflow:visible;visibility:visible;opacity:1;isolation:auto;mix-blend-mode:normal;color-interpolation:sRGB;color-interpolation-filters:linearRGB;solid-color:#000000;solid-opacity:1;fill:#969696;fill-opacity:1;fill-rule:nonzero;stroke:none;stroke-width:1;stroke-linecap:round;stroke-linejoin:round;stroke-miterlimit:4;stroke-dasharray:none;stroke-dashoffset:0;stroke-opacity:1;color-rendering:auto;image-rendering:auto;shape-rendering:auto;text-rendering:auto;enable-background:accumulate"
           inkscape:connector-curvature="0" />
      </g>
      <rect
         style="color:#000000;clip-rule:nonzero;display:inline;overflow:visible;visibility:visible;opacity:1;isolation:auto;mix-blend-mode:normal;color-interpolation:sRGB;color-interpolation-filters:linearRGB;solid-color:#000000;solid-opacity:1;fill:#f0f0f0;fill-opacity:1;fill-rule:nonzero;stroke:#cfcfcf;stroke-width:2;stroke-linecap:round;stroke-linejoin:round;stroke-miterlimit:4;stroke-dasharray:none;stroke-dashoffset:0;stroke-opacity:1;color-rendering:auto;image-rendering:auto;shape-rendering:auto;text-rendering:auto;enable-background:accumulate"
         id="rect4282"
         width="96"
         height="26"
         x="461.91602"
         y="356.50122" />
      <g
         id="g4288"
         transform="matrix(2,0,0,2,-162.31631,-575.46923)"
         style="fill:none;stroke:#393939;stroke-width:1.5;stroke-miterlimit:4;stroke-dasharray:none;stroke-opacity:1">
        <circle
           r="3.625"
           cy="472.13062"
           cx="335.03351"
           id="path4284"
           style="color:#000000;clip-rule:nonzero;display:inline;overflow:visible;visibility:visible;opacity:1;isolation:auto;mix-blend-mode:normal;color-interpolation:sRGB;color-interpolation-filters:linearRGB;solid-color:#000000;solid-opacity:1;fill:none;fill-opacity:1;fill-rule:nonzero;stroke:#393939;stroke-width:1.5;stroke-linecap:round;stroke-linejoin:round;stroke-miterlimit:4;stroke-dasharray:none;stroke-dashoffset:0;stroke-opacity:1;color-rendering:auto;image-rendering:auto;shape-rendering:auto;text-rendering:auto;enable-background:accumulate" />
        <path
           sodipodi:nodetypes="cc"
           inkscape:connector-curvature="0"
           id="path4286"
           d="m 337.9085,474.44313 2.90967,2.26732"
           style="color:#000000;clip-rule:nonzero;display:inline;overflow:visible;visibility:visible;opacity:1;isolation:auto;mix-blend-mode:normal;color-interpolation:sRGB;color-interpolation-filters:linearRGB;solid-color:#000000;solid-opacity:1;fill:none;fill-opacity:1;fill-rule:nonzero;stroke:#393939;stroke-width:1.5;stroke-linecap:round;stroke-linejoin:round;stroke-miterlimit:4;stroke-dasharray:none;stroke-dashoffset:0;stroke-opacity:1;color-rendering:auto;image-rendering:auto;shape-rendering:auto;text-rendering:auto;enable-background:accumulate" />
      </g>
      <rect
         y="356.50122"
         x="571.41595"
         height="26"
         width="96"
         id="rect4292"
         style="color:#000000;clip-rule:nonzero;display:inline;overflow:visible;visibility:visible;opacity:1;isolation:auto;mix-blend-mode:normal;color-interpolation:sRGB;color-interpolation-filters:linearRGB;solid-color:#000000;solid-opacity:1;fill:#f0f0f0;fill-opacity:1;fill-rule:nonzero;stroke:#cfcfcf;stroke-width:2;stroke-linecap:round;stroke-linejoin:round;stroke-miterlimit:4;stroke-dasharray:none;stroke-dashoffset:0;stroke-opacity:1;color-rendering:auto;image-rendering:auto;shape-rendering:auto;text-rendering:auto;enable-background:accumulate" />
      <path
         style="color:#000000;font-style:normal;font-variant:normal;font-weight:normal;font-stretch:normal;font-size:medium;line-height:normal;font-family:sans-serif;text-indent:0;text-align:start;text-decoration:none;text-decoration-line:none;text-decoration-style:solid;text-decoration-color:#000000;letter-spacing:normal;word-spacing:normal;text-transform:none;direction:ltr;block-progression:tb;writing-mode:lr-tb;baseline-shift:baseline;text-anchor:start;white-space:normal;clip-rule:nonzero;display:inline;overflow:visible;visibility:visible;opacity:1;isolation:auto;mix-blend-mode:normal;color-interpolation:sRGB;color-interpolation-filters:linearRGB;solid-color:#000000;solid-opacity:1;fill:#393939;fill-opacity:1;fill-rule:evenodd;stroke:none;stroke-width:42.69927216;stroke-linecap:round;stroke-linejoin:round;stroke-miterlimit:4;stroke-dasharray:none;stroke-dashoffset:0;stroke-opacity:1;color-rendering:auto;image-rendering:auto;shape-rendering:auto;text-rendering:auto;enable-background:accumulate"
         d="m 619.84606,359.79106 c -0.1234,0.008 -0.24538,0.0294 -0.36328,0.0664 l -8.3125,2.53514 c -0.76532,0.23384 -1.21234,1.02818 -1.01562,1.8047 l 0.96874,8.72656 c 0.0448,0.39698 0.24586,0.7597 0.5586,1.00782 l 6.14844,4.89062 c 0.0266,0.023 0.054,0.0452 0.082,0.0664 0.039,0.0306 0.0794,0.0594 0.121,0.086 0.0418,0.0268 0.0848,0.0516 0.129,0.0742 0.042,0.0216 0.0852,0.041 0.129,0.0586 l 0.0312,0.012 c 0.0308,0.012 0.0622,0.0218 0.0938,0.0312 0.0284,0.008 0.057,0.016 0.086,0.0234 l 0.02,0.004 0.008,0 c 0.0336,0.008 0.0674,0.014 0.1016,0.02 l 0.0976,0.012 0.0234,0 c 0.0298,0.002 0.0598,0.004 0.0898,0.004 0.0418,-8.6e-4 0.0834,-0.004 0.125,-0.008 0.0498,-0.004 0.0994,-0.01 0.1484,-0.02 0.05,-0.01 0.0996,-0.021 0.1484,-0.0352 0.1408,-0.04 0.2751,-0.1006 0.39844,-0.1796 l 7.73046,-4.33984 c 0.44324,-0.24944 0.73,-0.70678 0.76172,-1.21486 l 0.5664,-9.34374 c 0.0228,-0.38868 -0.106,-0.77104 -0.35936,-1.0664 -0.01,-0.012 -0.0206,-0.0236 -0.0312,-0.0352 -0.0576,-0.0624 -0.1202,-0.12 -0.1874,-0.1718 -0.012,-0.01 -0.0234,-0.018 -0.0352,-0.0274 l -0.0234,-0.016 c -0.0328,-0.0248 -0.0668,-0.0482 -0.1016,-0.0704 -0.0294,-0.016 -0.0594,-0.0322 -0.0898,-0.0468 -0.014,-0.006 -0.0286,-0.014 -0.043,-0.02 -0.0308,-0.016 -0.062,-0.0298 -0.0938,-0.043 l -0.012,-0.004 c -0.0206,-0.006 -0.0416,-0.014 -0.0624,-0.02 L 620.4364,359.88 c -0.1886,-0.0692 -0.3892,-0.0998 -0.58984,-0.0898 z m -0.48046,2.2422 c 0.65072,-0.0916 1.28938,0.062 1.42578,0.34374 0.1362,0.28132 -0.28286,0.58418 -0.9336,0.67578 -0.65072,0.0916 -1.28568,-0.0624 -1.42188,-0.34374 -0.1364,-0.2817 0.27896,-0.58418 0.9297,-0.67578 z m -4.1836,1.17968 c 0.68894,-0.1036 1.36342,0.0718 1.50782,0.39062 0.1442,0.31848 -0.29934,0.66204 -0.98828,0.76564 -0.68896,0.1036 -1.36362,-0.0722 -1.50782,-0.39064 -0.1444,-0.3189 0.29934,-0.66202 0.98828,-0.76562 z m 8.40626,0.168 c 0.72716,0.0996 1.1912,0.42826 1.03906,0.73436 -0.1524,0.3065 -0.86268,0.47458 -1.58984,0.375 -0.72718,-0.0996 -1.19532,-0.43176 -1.04298,-0.73828 0.1522,-0.30608 0.8666,-0.47066 1.59376,-0.37108 z m -4.69922,0.0468 c 0.8036,-0.0996 1.5894,0.0684 1.7578,0.375 0.1682,0.3061 -0.34482,0.63478 -1.14844,0.73438 -0.8036,0.0996 -1.59352,-0.069 -1.7617,-0.375 -0.1684,-0.30652 0.34874,-0.63478 1.15234,-0.73438 z m 0.28906,1.52344 c 0.5865,0.021 1.07668,0.1852 1.20702,0.4336 0.1734,0.33086 -0.35842,0.68536 -1.1875,0.79296 -0.82908,0.1076 -1.643,-0.0714 -1.8164,-0.40234 -0.1738,-0.3313 0.35842,-0.68928 1.1875,-0.79688 0.20726,-0.0268 0.41388,-0.0344 0.60938,-0.0274 z m -6.35156,0.42578 c 0.29294,0.018 0.64566,0.33222 0.89452,0.83204 0.33192,0.66644 0.34954,1.41494 0.039,1.66796 -0.31006,0.2527 -0.82832,-0.0836 -1.16014,-0.75 -0.33192,-0.66642 -0.34914,-1.41136 -0.039,-1.66406 0.0776,-0.0632 0.168,-0.0922 0.26564,-0.086 z m 12.53906,0.65626 c 0.1342,-0.018 0.26544,-0.006 0.3828,0.0508 0.46882,0.22592 0.55882,1.01012 0.20314,1.75 -0.3557,0.73986 -1.02336,1.1556 -1.4922,0.92968 -0.46946,-0.22624 -0.56272,-1.00622 -0.20702,-1.7461 0.26676,-0.5549 0.7105,-0.92794 1.11328,-0.98436 z m -9.26172,1.20702 c 0.31812,0.02 0.7063,0.35168 0.97656,0.87892 0.36032,0.70296 0.38014,1.487 0.043,1.7539 -0.33672,0.26656 -0.90526,-0.086 -1.26562,-0.78906 -0.36026,-0.70298 -0.37968,-1.49126 -0.043,-1.75782 0.0842,-0.0668 0.183,-0.0926 0.28906,-0.086 z m 5.01952,0.5625 c 0.1342,-0.018 0.26546,-0.006 0.38282,0.0508 0.46882,0.22592 0.5588,1.01012 0.20312,1.75 -0.3557,0.73986 -1.02334,1.15562 -1.49218,0.9297 -0.46946,-0.22624 -0.55882,-1.00624 -0.20312,-1.7461 0.26676,-0.5549 0.70658,-0.92796 1.10936,-0.98438 z m -7.90624,0.41016 c 0.26774,0.02 0.59286,0.3387 0.82032,0.84766 0.30334,0.67862 0.31894,1.43766 0.0352,1.69532 -0.2834,0.25732 -0.7592,-0.083 -1.0625,-0.76172 -0.30336,-0.67862 -0.31856,-1.438 -0.0352,-1.69532 0.071,-0.0644 0.153,-0.0924 0.24218,-0.086 z m 3.08594,2.09766 c 0.31812,0.02 0.70238,0.35166 0.97266,0.8789 0.36032,0.70296 0.38014,1.48702 0.043,1.75392 -0.33672,0.26656 -0.90136,-0.086 -1.26172,-0.78908 -0.36026,-0.70298 -0.37968,-1.49124 -0.043,-1.7578 0.0842,-0.0668 0.183,-0.0926 0.28906,-0.086 z m 8.96874,0.58202 c 0.1342,-0.018 0.26546,-0.002 0.38282,0.0548 0.46882,0.22592 0.5588,1.00622 0.20312,1.7461 -0.3557,0.73986 -1.02334,1.1595 -1.49218,0.93358 -0.46946,-0.22624 -0.56274,-1.01014 -0.20704,-1.75 0.26678,-0.5549 0.7105,-0.92794 1.11328,-0.98438 z m -11.70702,0.1992 c 0.25096,0.016 0.55632,0.2907 0.76952,0.72658 0.28436,0.58114 0.29724,1.23248 0.0312,1.45312 -0.26564,0.22036 -0.71182,-0.0712 -0.9961,-0.65234 -0.2842,-0.58114 -0.29688,-1.2328 -0.0312,-1.45314 0.0666,-0.0552 0.1428,-0.0796 0.22656,-0.0742 z m 7.60546,1.73438 c 0.1342,-0.018 0.26546,-0.002 0.38282,0.0548 0.46882,0.22592 0.5627,1.01012 0.20702,1.75 -0.3557,0.73986 -1.02724,1.1556 -1.49608,0.92968 -0.46946,-0.22624 -0.55884,-1.01014 -0.20314,-1.75 0.26678,-0.55492 0.7066,-0.92796 1.10938,-0.98438 z m -4.67968,0.41016 c 0.31812,0.02 0.70628,0.35168 0.97656,0.8789 0.36032,0.70296 0.37624,1.48702 0.039,1.75392 -0.33672,0.26656 -0.90136,-0.086 -1.26172,-0.78906 -0.36026,-0.703 -0.37968,-1.48736 -0.043,-1.75392 0.0842,-0.0668 0.183,-0.0964 0.28906,-0.0898 z"
         id="path2434"
         inkscape:connector-curvature="0" />
    </g>
  </g>
  <metadata
     id="metadata24">
    <rdf:RDF>
      <cc:Work>
        <dc:format>image/svg+xml</dc:format>
        <dc:type
           rdf:resource="http://purl.org/dc/dcmitype/StillImage" />
        <cc:license
           rdf:resource="http://creativecommons.org/publicdomain/zero/1.0/" />
        <dc:publisher>
          <cc:Agent
             rdf:about="http://openclipart.org/">
            <dc:title>Openclipart</dc:title>
          </cc:Agent>
        </dc:publisher>
        <dc:title></dc:title>
      </cc:Work>
      <cc:License
         rdf:about="http://creativecommons.org/publicdomain/zero/1.0/">
        <cc:permits
           rdf:resource="http://creativecommons.org/ns#Reproduction" />
        <cc:permits
           rdf:resource="http://creativecommons.org/ns#Distribution" />
        <cc:permits
           rdf:resource="http://creativecommons.org/ns#DerivativeWorks" />
      </cc:License>
    </rdf:RDF>
  </metadata>
</svg>
